<svg width="16" height="16" viewBox="0 0 16 16" fill="none" xmlns="http://www.w3.org/2000/svg">
<g clip-path="url(#clip0_1629_6054)">
<path d="M16 3.42852C16 2.82231 15.7592 2.24093 15.3305 1.81227C14.9019 1.38362 14.3205 1.1428 13.7143 1.1428H13.1429V0.587448C13.1429 0.279948 12.9064 0.0160193 12.5989 0.000662135C12.5217 -0.00306044 12.4445 0.00894217 12.372 0.0359428C12.2995 0.0629434 12.2332 0.10438 12.1772 0.157741C12.1212 0.211102 12.0766 0.275278 12.0462 0.346378C12.0157 0.417479 12 0.494024 12 0.571376V1.1428H4V0.587448C4 0.279948 3.76357 0.0160193 3.45607 0.000662135C3.37881 -0.00306044 3.3016 0.00894217 3.22911 0.0359428C3.15662 0.0629434 3.09037 0.10438 3.03437 0.157741C2.97837 0.211102 2.93379 0.275278 2.90333 0.346378C2.87286 0.417479 2.85715 0.494024 2.85714 0.571376V1.1428H2.28571C1.67951 1.1428 1.09812 1.38362 0.66947 1.81227C0.240816 2.24093 0 2.82231 0 3.42852V3.85709C0 3.89498 0.015051 3.93131 0.0418419 3.95811C0.0686328 3.9849 0.104969 3.99995 0.142857 3.99995H15.8571C15.895 3.99995 15.9314 3.9849 15.9582 3.95811C15.985 3.93131 16 3.89498 16 3.85709V3.42852ZM0 13.7142C0 14.3204 0.240816 14.9018 0.66947 15.3305C1.09812 15.7591 1.67951 15.9999 2.28571 15.9999H13.7143C14.3205 15.9999 14.9019 15.7591 15.3305 15.3305C15.7592 14.9018 16 14.3204 16 13.7142V5.24995C16 5.22153 15.9887 5.19428 15.9686 5.17419C15.9485 5.15409 15.9213 5.1428 15.8929 5.1428H0.107143C0.0787268 5.1428 0.0514747 5.15409 0.0313815 5.17419C0.0112883 5.19428 0 5.22153 0 5.24995V13.7142ZM12.2857 6.28566C12.4552 6.28566 12.621 6.33593 12.7619 6.43012C12.9029 6.5243 13.0127 6.65817 13.0776 6.81479C13.1425 6.97141 13.1595 7.14376 13.1264 7.31002C13.0933 7.47629 13.0117 7.62902 12.8918 7.7489C12.7719 7.86877 12.6192 7.9504 12.4529 7.98348C12.2867 8.01655 12.1143 7.99958 11.9577 7.9347C11.8011 7.86983 11.6672 7.75996 11.573 7.61901C11.4788 7.47805 11.4286 7.31233 11.4286 7.1428C11.4286 6.91548 11.5189 6.69746 11.6796 6.53671C11.8404 6.37597 12.0584 6.28566 12.2857 6.28566ZM12.2857 9.1428C12.4552 9.1428 12.621 9.19308 12.7619 9.28726C12.9029 9.38144 13.0127 9.51531 13.0776 9.67193C13.1425 9.82856 13.1595 10.0009 13.1264 10.1672C13.0933 10.3334 13.0117 10.4862 12.8918 10.606C12.7719 10.7259 12.6192 10.8075 12.4529 10.8406C12.2867 10.8737 12.1143 10.8567 11.9577 10.7918C11.8011 10.727 11.6672 10.6171 11.573 10.4761C11.4788 10.3352 11.4286 10.1695 11.4286 9.99995C11.4286 9.77262 11.5189 9.5546 11.6796 9.39386C11.8404 9.23311 12.0584 9.1428 12.2857 9.1428ZM9.42857 6.28566C9.5981 6.28566 9.76382 6.33593 9.90477 6.43012C10.0457 6.5243 10.1556 6.65817 10.2205 6.81479C10.2853 6.97141 10.3023 7.14376 10.2692 7.31002C10.2362 7.47629 10.1545 7.62902 10.0347 7.7489C9.91479 7.86877 9.76206 7.9504 9.59579 7.98348C9.42952 8.01655 9.25718 7.99958 9.10056 7.9347C8.94394 7.86983 8.81007 7.75996 8.71588 7.61901C8.6217 7.47805 8.57143 7.31233 8.57143 7.1428C8.57143 6.91548 8.66174 6.69746 8.82248 6.53671C8.98323 6.37597 9.20124 6.28566 9.42857 6.28566ZM9.42857 9.1428C9.5981 9.1428 9.76382 9.19308 9.90477 9.28726C10.0457 9.38144 10.1556 9.51531 10.2205 9.67193C10.2853 9.82856 10.3023 10.0009 10.2692 10.1672C10.2362 10.3334 10.1545 10.4862 10.0347 10.606C9.91479 10.7259 9.76206 10.8075 9.59579 10.8406C9.42952 10.8737 9.25718 10.8567 9.10056 10.7918C8.94394 10.727 8.81007 10.6171 8.71588 10.4761C8.6217 10.3352 8.57143 10.1695 8.57143 9.99995C8.57143 9.77262 8.66174 9.5546 8.82248 9.39386C8.98323 9.23311 9.20124 9.1428 9.42857 9.1428ZM9.42857 11.9999C9.5981 11.9999 9.76382 12.0502 9.90477 12.1444C10.0457 12.2386 10.1556 12.3725 10.2205 12.5291C10.2853 12.6857 10.3023 12.858 10.2692 13.0243C10.2362 13.1906 10.1545 13.3433 10.0347 13.4632C9.91479 13.5831 9.76206 13.6647 9.59579 13.6978C9.42952 13.7308 9.25718 13.7139 9.10056 13.649C8.94394 13.5841 8.81007 13.4742 8.71588 13.3333C8.6217 13.1923 8.57143 13.0266 8.57143 12.8571C8.57143 12.6298 8.66174 12.4117 8.82248 12.251C8.98323 12.0903 9.20124 11.9999 9.42857 11.9999ZM6.57143 9.1428C6.74096 9.1428 6.90668 9.19308 7.04763 9.28726C7.18859 9.38144 7.29845 9.51531 7.36333 9.67193C7.4282 9.82856 7.44518 10.0009 7.4121 10.1672C7.37903 10.3334 7.29739 10.4862 7.17752 10.606C7.05765 10.7259 6.90492 10.8075 6.73865 10.8406C6.57238 10.8737 6.40004 10.8567 6.24341 10.7918C6.08679 10.727 5.95292 10.6171 5.85874 10.4761C5.76456 10.3352 5.71429 10.1695 5.71429 9.99995C5.71429 9.77262 5.80459 9.5546 5.96534 9.39386C6.12608 9.23311 6.3441 9.1428 6.57143 9.1428ZM6.57143 11.9999C6.74096 11.9999 6.90668 12.0502 7.04763 12.1444C7.18859 12.2386 7.29845 12.3725 7.36333 12.5291C7.4282 12.6857 7.44518 12.858 7.4121 13.0243C7.37903 13.1906 7.29739 13.3433 7.17752 13.4632C7.05765 13.5831 6.90492 13.6647 6.73865 13.6978C6.57238 13.7308 6.40004 13.7139 6.24341 13.649C6.08679 13.5841 5.95292 13.4742 5.85874 13.3333C5.76456 13.1923 5.71429 13.0266 5.71429 12.8571C5.71429 12.6298 5.80459 12.4117 5.96534 12.251C6.12608 12.0903 6.3441 11.9999 6.57143 11.9999ZM3.71429 9.1428C3.88381 9.1428 4.04953 9.19308 4.19049 9.28726C4.33145 9.38144 4.44131 9.51531 4.50618 9.67193C4.57106 9.82856 4.58803 10.0009 4.55496 10.1672C4.52189 10.3334 4.44025 10.4862 4.32038 10.606C4.2005 10.7259 4.04778 10.8075 3.88151 10.8406C3.71524 10.8737 3.54289 10.8567 3.38627 10.7918C3.22965 10.727 3.09578 10.6171 3.0016 10.4761C2.90741 10.3352 2.85714 10.1695 2.85714 9.99995C2.85714 9.77262 2.94745 9.5546 3.10819 9.39386C3.26894 9.23311 3.48696 9.1428 3.71429 9.1428ZM3.71429 11.9999C3.88381 11.9999 4.04953 12.0502 4.19049 12.1444C4.33145 12.2386 4.44131 12.3725 4.50618 12.5291C4.57106 12.6857 4.58803 12.858 4.55496 13.0243C4.52189 13.1906 4.44025 13.3433 4.32038 13.4632C4.2005 13.5831 4.04778 13.6647 3.88151 13.6978C3.71524 13.7308 3.54289 13.7139 3.38627 13.649C3.22965 13.5841 3.09578 13.4742 3.0016 13.3333C2.90741 13.1923 2.85714 13.0266 2.85714 12.8571C2.85714 12.6298 2.94745 12.4117 3.10819 12.251C3.26894 12.0903 3.48696 11.9999 3.71429 11.9999Z" fill="white"/>
</g>
<defs>
<clipPath id="clip0_1629_6054">
<rect width="16" height="16" fill="white"/>
</clipPath>
</defs>
</svg>
