<svg width="14" height="16" viewBox="0 0 14 16" fill="none" xmlns="http://www.w3.org/2000/svg">
<path d="M1 15.788C0.447715 15.788 0 15.3403 0 14.788V5.78584C0 5.4723 0.147054 5.17691 0.397231 4.98792L6.39723 0.455348C6.75391 0.185903 7.24609 0.185903 7.60277 0.455349L13.6028 4.98792C13.8529 5.17691 14 5.4723 14 5.78584V14.788C14 15.3403 13.5523 15.788 13 15.788H9.808C9.25571 15.788 8.808 15.3403 8.808 14.788V10.404C8.808 9.85172 8.36028 9.404 7.808 9.404H6.192C5.63972 9.404 5.192 9.85172 5.192 10.404V14.788C5.192 15.3403 4.74429 15.788 4.192 15.788H1Z" fill="white"/>
</svg>
